<?xml version="1.0" encoding="UTF-8"?>
<svg id="Lager_1" xmlns="http://www.w3.org/2000/svg" xmlns:xlink="http://www.w3.org/1999/xlink" version="1.1" viewBox="0 0 85.3 29.3">
  <!-- Generator: Adobe Illustrator 29.1.0, SVG Export Plug-In . SVG Version: 2.1.0 Build 142)  -->
  <defs>
    <style>
      .st0 {
        fill: none;
      }

      .st1 {
        isolation: isolate;
      }

      .st2 {
        fill: #083932;
      }

      .st3 {
        fill: url(#Namnlös_övertoning_2);
      }

      .st4 {
        fill: url(#Namnlös_övertoning);
      }
    </style>
    <linearGradient id="Namnlös_övertoning" data-name="Namnlös övertoning" x1="70.6" y1="24.4" x2="80.3" y2="24.4" gradientTransform="translate(.9 28.4) rotate(-1.6) scale(.9 -.9) skewX(5.2)" gradientUnits="userSpaceOnUse">
      <stop offset="0" stop-color="#fff"/>
      <stop offset="0" stop-color="#fefefd"/>
      <stop offset="0" stop-color="#fdfdf7" stop-opacity="1"/>
      <stop offset="0" stop-color="#fafbec" stop-opacity="1"/>
      <stop offset="0" stop-color="#f7f7dd" stop-opacity="1"/>
      <stop offset="0" stop-color="#f3f3c9" stop-opacity="1"/>
      <stop offset="0" stop-color="#eeeeb2" stop-opacity=".9"/>
      <stop offset="0" stop-color="#eaeba0" stop-opacity=".9"/>
      <stop offset=".2" stop-color="#92b668" stop-opacity="1"/>
      <stop offset=".4" stop-color="#458837" stop-opacity="1"/>
      <stop offset=".5" stop-color="#287624"/>
      <stop offset=".6" stop-color="#1b6629"/>
      <stop offset=".8" stop-color="#074e33"/>
      <stop offset=".9" stop-color="#004537"/>
    </linearGradient>
    <linearGradient id="Namnlös_övertoning_2" data-name="Namnlös övertoning 2" x1="67.4" y1="27.9" x2="74.2" y2="27.9" gradientTransform="translate(-3.7 27.8) rotate(4.9) scale(1 -1)" gradientUnits="userSpaceOnUse">
      <stop offset="0" stop-color="#fff"/>
      <stop offset="0" stop-color="#fefefd"/>
      <stop offset="0" stop-color="#fdfdf7" stop-opacity="1"/>
      <stop offset="0" stop-color="#fafbec" stop-opacity="1"/>
      <stop offset="0" stop-color="#f7f7dd" stop-opacity="1"/>
      <stop offset="0" stop-color="#f3f3c9" stop-opacity="1"/>
      <stop offset="0" stop-color="#eeeeb2" stop-opacity=".9"/>
      <stop offset="0" stop-color="#eaeba0" stop-opacity=".9"/>
      <stop offset=".2" stop-color="#92b668" stop-opacity="1"/>
      <stop offset=".4" stop-color="#458837" stop-opacity="1"/>
      <stop offset=".5" stop-color="#287624"/>
      <stop offset=".6" stop-color="#1b6629"/>
      <stop offset=".8" stop-color="#074e33"/>
      <stop offset=".9" stop-color="#004537"/>
    </linearGradient>
  </defs>
  <g class="st1">
    <g class="st1">
      <path class="st2" d="M3.3,6h.1v13.9H1.3V4.1h2.9l8.2,13.9h-.1s0-13.9,0-13.9h2.1v15.8h-2.9L3.3,6Z"/>
      <path class="st2" d="M25.5,19.9v-1.9c0,.2-.3.5-.6.8-.3.4-.7.7-1.3,1-.5.3-1.2.4-1.9.4s-1.7-.2-2.5-.6c-.7-.4-1.3-1-1.8-1.8-.4-.8-.7-1.7-.7-2.7s.2-2,.7-2.7c.4-.8,1-1.4,1.8-1.8.7-.4,1.6-.7,2.5-.7s1.3.1,1.9.4.9.6,1.3.9c.3.3.5.6.6.9v-1.8h2.1v9.9h-2ZM18.9,15c0,.7.2,1.3.5,1.8.3.5.7.9,1.2,1.2.5.3,1,.4,1.6.4s1.2-.1,1.6-.4.9-.7,1.1-1.2c.3-.5.4-1.1.4-1.8s-.1-1.3-.4-1.8c-.3-.5-.7-.9-1.1-1.2s-1-.4-1.6-.4-1.1.1-1.6.4c-.5.3-.9.7-1.2,1.2-.3.5-.5,1.1-.5,1.8Z"/>
      <path class="st2" d="M29.4,10.1h1.9v-4h2.1v4h2.5v1.8h-2.5v4.9c0,.6.1,1,.3,1.3.2.3.5.4.8.4s.5,0,.7-.2c.2-.1.3-.2.3-.2l.8,1.5s-.2.1-.4.2c-.2.1-.5.2-.8.3-.3,0-.7.1-1.2.1-.8,0-1.4-.2-1.9-.7s-.8-1.2-.8-2.2v-5.4h-1.9v-1.8Z"/>
      <path class="st2" d="M40.2,15c0,1,.2,1.9.7,2.5.4.6,1.1.9,2,.9s1.6-.3,2.1-.9c.4-.6.7-1.4.7-2.5v-5h2.1v5.3c0,1-.2,1.8-.6,2.5-.4.7-.9,1.3-1.6,1.7-.7.4-1.6.6-2.6.6s-1.9-.2-2.6-.6-1.2-1-1.6-1.7-.6-1.6-.6-2.5v-5.3h2.1v5Z"/>
      <path class="st2" d="M52.6,19.9h-2.1v-9.9h2.1v1.7h0c0-.2.2-.5.4-.8.3-.3.6-.6,1.1-.8s1-.4,1.6-.4.9,0,1.2.2c.3.1.6.2.7.4l-.9,1.7c-.1-.1-.3-.2-.6-.3-.3-.1-.6-.2-1-.2s-1,.2-1.4.5-.7.7-.9,1.2c-.2.5-.3.9-.3,1.3v5.4Z"/>
      <path class="st2" d="M61.1,19.9h-2.1V3.4h2.1v16.5Z"/>
      <path class="st2" d="M68.2,18l3.3-7.9h2.1l-6.6,14.8h-2.1l2.2-5-4.1-9.9h2.1l3,7.9Z"/>
    </g>
  </g>
  <path class="st0" d="M52.4,16.4c.3-.1.6-.3,1-.3.2,0,.4,0,.6,0,.8,0,1.5-.4,2-.9"/>
  <g>
    <path class="st4" d="M76.2,1.3s-.1,4.6-2.7,6.5-6.6.4-6.6.4c0,0,.1-4.6,2.7-6.5s6.6-.4,6.6-.4Z"/>
    <path class="st3" d="M65.6,8.7c6.1-2.3,7.2-5.2,7.2-5.2"/>
  </g>
</svg>